M48
; DRILL file {KiCad 9.0.7} date 2026-03-30T11:08:42+0200
; FORMAT={-:-/ absolute / metric / decimal}
; #@! TF.CreationDate,2026-03-30T11:08:42+02:00
; #@! TF.GenerationSoftware,Kicad,Pcbnew,9.0.7
; #@! TF.FileFunction,Plated,1,2,PTH
FMAT,2
METRIC
; #@! TA.AperFunction,Plated,PTH,ViaDrill
T1C0.400
; #@! TA.AperFunction,Plated,PTH,ComponentDrill
T2C1.000
; #@! TA.AperFunction,Plated,PTH,ComponentDrill
T3C1.200
; #@! TA.AperFunction,Plated,PTH,ComponentDrill
T4C1.700
%
G90
G05
T1
X113.9Y-72.7
X114.25Y-86.8
X118.25Y-72.7
X118.75Y-86.5
X120.85Y-75.65
X121.15Y-84.15
X121.8Y-78.4
X121.8Y-81.2
X124.05Y-78.35
X124.05Y-81.2
X126.4Y-78.35
X126.4Y-81.25
X127.82Y-66.19
X128.0Y-83.1
X128.65Y-78.35
X128.65Y-81.25
X130.4Y-84.1
X131.35Y-78.35
X131.35Y-81.25
X131.45Y-96.25
X131.5Y-89.8
X133.98Y-99.39
X134.25Y-81.55
X134.5Y-78.35
X134.62Y-66.1
X134.7Y-89.7
X134.7Y-96.6
X135.1Y-73.5
X135.525Y-69.975
X136.89Y-102.68
X138.75Y-89.65
X139.0Y-96.6
X139.3Y-84.1
X140.1Y-83.1
X140.24Y-105.9
X140.95Y-99.35
X141.55Y-89.65
X141.7Y-93.3
X141.95Y-67.44
X143.45Y-84.7
X143.6Y-74.8
X143.8Y-89.65
X145.2Y-92.45
X146.0Y-95.35
X147.7Y-103.35
X150.44Y-67.11
X150.708Y-81.708
X150.8Y-71.2
X150.8Y-74.2
X150.8Y-76.7
X150.8Y-79.2
X152.25Y-91.75
X153.45Y-78.35
X154.3Y-70.65
X154.95Y-85.6
X155.5Y-103.25
X155.9Y-95.9
X155.95Y-99.35
X158.86Y-66.71
X159.16Y-100.91
X159.2Y-75.5
X159.25Y-85.7
X159.5Y-70.65
X159.9Y-79.4
X160.9Y-105.0
X161.0Y-74.05
X161.55Y-100.85
X162.5Y-95.05
X164.0Y-66.0
X164.25Y-106.1
X166.5Y-95.8
X166.76Y-105.96
X167.35Y-101.3
X168.15Y-77.15
X168.2Y-70.35
X169.47Y-66.54
X169.55Y-100.2
X169.7Y-97.35
X169.8Y-82.7
X170.1Y-70.5
X170.1Y-81.2
X170.35Y-87.1
X172.05Y-68.7
X173.85Y-103.8
X174.3Y-94.9
X174.45Y-82.7
X176.12Y-105.83
X176.6Y-72.05
X176.95Y-81.6
X178.05Y-69.65
X178.45Y-89.45
X181.75Y-72.2
X182.65Y-89.45
X183.2Y-105.72
X183.9Y-87.55
X183.95Y-94.5
X187.7Y-72.4
X188.86Y-93.03
X188.86Y-99.33
X188.96Y-89.36
X188.98Y-86.6
T2
X127.86Y-87.345
X130.4Y-87.345
X132.94Y-87.345
X135.48Y-87.345
X138.02Y-87.345
X140.56Y-87.345
X143.1Y-87.345
X159.16Y-103.3
X161.7Y-103.3
X164.24Y-103.3
X166.78Y-103.3
X185.7Y-80.407
X186.75Y-86.92
X186.75Y-89.46
X186.75Y-92.0
X186.75Y-94.54
X187.55Y-74.858
T3
X182.8Y-80.407
X184.9Y-75.557
T4
X172.55Y-78.632
X175.45Y-75.557
M30
