%TF.GenerationSoftware,KiCad,Pcbnew,9.0.7*%
%TF.CreationDate,2026-03-30T11:08:40+02:00*%
%TF.ProjectId,sdr_tayloe_detector,7364725f-7461-4796-9c6f-655f64657465,rev?*%
%TF.SameCoordinates,Original*%
%TF.FileFunction,Soldermask,Top*%
%TF.FilePolarity,Negative*%
%FSLAX46Y46*%
G04 Gerber Fmt 4.6, Leading zero omitted, Abs format (unit mm)*
G04 Created by KiCad (PCBNEW 9.0.7) date 2026-03-30 11:08:40*
%MOMM*%
%LPD*%
G01*
G04 APERTURE LIST*
G04 Aperture macros list*
%AMRoundRect*
0 Rectangle with rounded corners*
0 $1 Rounding radius*
0 $2 $3 $4 $5 $6 $7 $8 $9 X,Y pos of 4 corners*
0 Add a 4 corners polygon primitive as box body*
4,1,4,$2,$3,$4,$5,$6,$7,$8,$9,$2,$3,0*
0 Add four circle primitives for the rounded corners*
1,1,$1+$1,$2,$3*
1,1,$1+$1,$4,$5*
1,1,$1+$1,$6,$7*
1,1,$1+$1,$8,$9*
0 Add four rect primitives between the rounded corners*
20,1,$1+$1,$2,$3,$4,$5,0*
20,1,$1+$1,$4,$5,$6,$7,0*
20,1,$1+$1,$6,$7,$8,$9,0*
20,1,$1+$1,$8,$9,$2,$3,0*%
%AMFreePoly0*
4,1,23,0.500000,-0.750000,0.000000,-0.750000,0.000000,-0.745722,-0.065263,-0.745722,-0.191342,-0.711940,-0.304381,-0.646677,-0.396677,-0.554381,-0.461940,-0.441342,-0.495722,-0.315263,-0.495722,-0.250000,-0.500000,-0.250000,-0.500000,0.250000,-0.495722,0.250000,-0.495722,0.315263,-0.461940,0.441342,-0.396677,0.554381,-0.304381,0.646677,-0.191342,0.711940,-0.065263,0.745722,0.000000,0.745722,
0.000000,0.750000,0.500000,0.750000,0.500000,-0.750000,0.500000,-0.750000,$1*%
%AMFreePoly1*
4,1,23,0.000000,0.745722,0.065263,0.745722,0.191342,0.711940,0.304381,0.646677,0.396677,0.554381,0.461940,0.441342,0.495722,0.315263,0.495722,0.250000,0.500000,0.250000,0.500000,-0.250000,0.495722,-0.250000,0.495722,-0.315263,0.461940,-0.441342,0.396677,-0.554381,0.304381,-0.646677,0.191342,-0.711940,0.065263,-0.745722,0.000000,-0.745722,0.000000,-0.750000,-0.500000,-0.750000,
-0.500000,0.750000,0.000000,0.750000,0.000000,0.745722,0.000000,0.745722,$1*%
%AMFreePoly2*
4,1,23,0.550000,-0.750000,0.000000,-0.750000,0.000000,-0.745722,-0.065263,-0.745722,-0.191342,-0.711940,-0.304381,-0.646677,-0.396677,-0.554381,-0.461940,-0.441342,-0.495722,-0.315263,-0.495722,-0.250000,-0.500000,-0.250000,-0.500000,0.250000,-0.495722,0.250000,-0.495722,0.315263,-0.461940,0.441342,-0.396677,0.554381,-0.304381,0.646677,-0.191342,0.711940,-0.065263,0.745722,0.000000,0.745722,
0.000000,0.750000,0.550000,0.750000,0.550000,-0.750000,0.550000,-0.750000,$1*%
%AMFreePoly3*
4,1,23,0.000000,0.745722,0.065263,0.745722,0.191342,0.711940,0.304381,0.646677,0.396677,0.554381,0.461940,0.441342,0.495722,0.315263,0.495722,0.250000,0.500000,0.250000,0.500000,-0.250000,0.495722,-0.250000,0.495722,-0.315263,0.461940,-0.441342,0.396677,-0.554381,0.304381,-0.646677,0.191342,-0.711940,0.065263,-0.745722,0.000000,-0.745722,0.000000,-0.750000,-0.550000,-0.750000,
-0.550000,0.750000,0.000000,0.750000,0.000000,0.745722,0.000000,0.745722,$1*%
G04 Aperture macros list end*
%ADD10RoundRect,0.250000X-0.475000X0.337500X-0.475000X-0.337500X0.475000X-0.337500X0.475000X0.337500X0*%
%ADD11RoundRect,0.250000X-0.337500X-0.475000X0.337500X-0.475000X0.337500X0.475000X-0.337500X0.475000X0*%
%ADD12RoundRect,0.250000X0.337500X0.475000X-0.337500X0.475000X-0.337500X-0.475000X0.337500X-0.475000X0*%
%ADD13RoundRect,0.250000X-0.400000X-0.625000X0.400000X-0.625000X0.400000X0.625000X-0.400000X0.625000X0*%
%ADD14C,3.500000*%
%ADD15C,1.800000*%
%ADD16C,2.300000*%
%ADD17C,2.000000*%
%ADD18C,2.700000*%
%ADD19C,2.200000*%
%ADD20RoundRect,0.150000X0.150000X-0.512500X0.150000X0.512500X-0.150000X0.512500X-0.150000X-0.512500X0*%
%ADD21RoundRect,0.250000X0.625000X-0.400000X0.625000X0.400000X-0.625000X0.400000X-0.625000X-0.400000X0*%
%ADD22FreePoly0,0.000000*%
%ADD23FreePoly1,0.000000*%
%ADD24R,5.800000X1.500000*%
%ADD25R,5.600000X1.700000*%
%ADD26FreePoly2,270.000000*%
%ADD27R,1.500000X1.000000*%
%ADD28FreePoly3,270.000000*%
%ADD29RoundRect,0.150000X-0.825000X-0.150000X0.825000X-0.150000X0.825000X0.150000X-0.825000X0.150000X0*%
%ADD30RoundRect,0.250000X0.475000X-0.337500X0.475000X0.337500X-0.475000X0.337500X-0.475000X-0.337500X0*%
%ADD31R,1.700000X1.700000*%
%ADD32C,1.700000*%
%ADD33C,3.200000*%
%ADD34RoundRect,0.250000X0.400000X0.625000X-0.400000X0.625000X-0.400000X-0.625000X0.400000X-0.625000X0*%
%ADD35RoundRect,0.250000X-0.625000X0.400000X-0.625000X-0.400000X0.625000X-0.400000X0.625000X0.400000X0*%
%ADD36RoundRect,0.150000X-0.150000X0.825000X-0.150000X-0.825000X0.150000X-0.825000X0.150000X0.825000X0*%
G04 APERTURE END LIST*
%TO.C,JP6*%
G36*
X159650000Y-97250000D02*
G01*
X159950000Y-97250000D01*
X159950000Y-98750000D01*
X159650000Y-98750000D01*
X159650000Y-97250000D01*
G37*
%TO.C,JP7*%
G36*
X160250000Y-92550000D02*
G01*
X158750000Y-92550000D01*
X158750000Y-94050000D01*
X160250000Y-94050000D01*
X160250000Y-92550000D01*
G37*
%TD*%
D10*
%TO.C,C9*%
X168200000Y-78662500D03*
X168200000Y-80737500D03*
%TD*%
D11*
%TO.C,C15*%
X165262500Y-99900000D03*
X167337500Y-99900000D03*
%TD*%
D12*
%TO.C,C14*%
X143737500Y-91300000D03*
X141662500Y-91300000D03*
%TD*%
D11*
%TO.C,C1*%
X146574000Y-81708000D03*
X148649000Y-81708000D03*
%TD*%
D13*
%TO.C,R7*%
X161850000Y-84300000D03*
X164950000Y-84300000D03*
%TD*%
%TO.C,R6*%
X153730000Y-75500000D03*
X156830000Y-75500000D03*
%TD*%
D14*
%TO.C,H3*%
X186000000Y-103000000D03*
%TD*%
D15*
%TO.C,J2*%
X183700000Y-77982500D03*
X176700000Y-77982500D03*
D16*
X184900000Y-75557500D03*
D17*
X185700000Y-80407500D03*
D18*
X172550000Y-78632500D03*
X175450000Y-75557500D03*
D19*
X182800000Y-80407500D03*
D17*
X187550000Y-74857500D03*
%TD*%
D11*
%TO.C,C16*%
X165262500Y-97300000D03*
X167337500Y-97300000D03*
%TD*%
%TO.C,C6*%
X172442500Y-72000000D03*
X174517500Y-72000000D03*
%TD*%
%TO.C,C5*%
X163562500Y-69250000D03*
X165637500Y-69250000D03*
%TD*%
%TO.C,C8*%
X172442500Y-84400000D03*
X174517500Y-84400000D03*
%TD*%
%TO.C,C3*%
X146574000Y-79208000D03*
X148649000Y-79208000D03*
%TD*%
D20*
%TO.C,U4*%
X165150000Y-94437500D03*
X166100000Y-94437500D03*
X167050000Y-94437500D03*
X167050000Y-92162500D03*
X165150000Y-92162500D03*
%TD*%
D13*
%TO.C,R4*%
X163150000Y-72000000D03*
X166250000Y-72000000D03*
%TD*%
D21*
%TO.C,R11*%
X134700000Y-94550000D03*
X134700000Y-91450000D03*
%TD*%
D22*
%TO.C,JP6*%
X159150000Y-98000000D03*
D23*
X160450000Y-98000000D03*
%TD*%
D24*
%TO.C,J1*%
X115200000Y-79800000D03*
D25*
X115100000Y-83950000D03*
X115100000Y-75650000D03*
%TD*%
D11*
%TO.C,C4*%
X146536500Y-76708000D03*
X148611500Y-76708000D03*
%TD*%
D26*
%TO.C,JP7*%
X159500000Y-92000000D03*
D27*
X159500000Y-93300000D03*
D28*
X159500000Y-94600000D03*
%TD*%
D29*
%TO.C,U1*%
X136805000Y-72180000D03*
X136805000Y-73450000D03*
X136805000Y-74720000D03*
X136805000Y-75990000D03*
X136805000Y-77260000D03*
X136805000Y-78530000D03*
X136805000Y-79800000D03*
X136805000Y-81070000D03*
X141755000Y-81070000D03*
X141755000Y-79800000D03*
X141755000Y-78530000D03*
X141755000Y-77260000D03*
X141755000Y-75990000D03*
X141755000Y-74720000D03*
X141755000Y-73450000D03*
X141755000Y-72180000D03*
%TD*%
D30*
%TO.C,C13*%
X155000000Y-89437500D03*
X155000000Y-87362500D03*
%TD*%
D21*
%TO.C,R12*%
X139000000Y-94550000D03*
X139000000Y-91450000D03*
%TD*%
D13*
%TO.C,R1*%
X146130000Y-71200000D03*
X149230000Y-71200000D03*
%TD*%
%TO.C,R2*%
X153730000Y-83100000D03*
X156830000Y-83100000D03*
%TD*%
D31*
%TO.C,J3*%
X159160000Y-103300000D03*
D32*
X161700000Y-103300000D03*
X164240000Y-103300000D03*
X166780000Y-103300000D03*
%TD*%
D11*
%TO.C,C2*%
X146574000Y-74208000D03*
X148649000Y-74208000D03*
%TD*%
D33*
%TO.C,U3*%
X122730000Y-87345000D03*
X148230000Y-87345000D03*
D31*
X127860000Y-87345000D03*
D32*
X130400000Y-87345000D03*
X132940000Y-87345000D03*
X135480000Y-87345000D03*
X138020000Y-87345000D03*
X140560000Y-87345000D03*
X143100000Y-87345000D03*
%TD*%
D13*
%TO.C,R10*%
X130250000Y-76200000D03*
X133350000Y-76200000D03*
%TD*%
%TO.C,R8*%
X129530000Y-68000000D03*
X132630000Y-68000000D03*
%TD*%
%TO.C,R5*%
X153730000Y-80400000D03*
X156830000Y-80400000D03*
%TD*%
D11*
%TO.C,C10*%
X125462500Y-79800000D03*
X127537500Y-79800000D03*
%TD*%
D14*
%TO.C,H2*%
X186000000Y-69000000D03*
%TD*%
%TO.C,H1*%
X116000000Y-69000000D03*
%TD*%
D11*
%TO.C,C12*%
X130562500Y-73000000D03*
X132637500Y-73000000D03*
%TD*%
D14*
%TO.C,H4*%
X116000000Y-103000000D03*
%TD*%
D11*
%TO.C,C11*%
X138242500Y-69500000D03*
X140317500Y-69500000D03*
%TD*%
D34*
%TO.C,R9*%
X132630000Y-70400000D03*
X129530000Y-70400000D03*
%TD*%
D35*
%TO.C,R13*%
X131400000Y-91450000D03*
X131400000Y-94550000D03*
%TD*%
D36*
%TO.C,U2*%
X165305000Y-75775000D03*
X164035000Y-75775000D03*
X162765000Y-75775000D03*
X161495000Y-75775000D03*
X161495000Y-80725000D03*
X162765000Y-80725000D03*
X164035000Y-80725000D03*
X165305000Y-80725000D03*
%TD*%
D13*
%TO.C,R3*%
X153730000Y-73000000D03*
X156830000Y-73000000D03*
%TD*%
D31*
%TO.C,J4*%
X186750000Y-94540000D03*
D32*
X186750000Y-92000000D03*
X186750000Y-89460000D03*
X186750000Y-86920000D03*
%TD*%
D11*
%TO.C,C7*%
X162362500Y-87100000D03*
X164437500Y-87100000D03*
%TD*%
M02*
