%TF.GenerationSoftware,KiCad,Pcbnew,9.0.7*%
%TF.CreationDate,2026-03-30T11:08:40+02:00*%
%TF.ProjectId,sdr_tayloe_detector,7364725f-7461-4796-9c6f-655f64657465,rev?*%
%TF.SameCoordinates,Original*%
%TF.FileFunction,Legend,Top*%
%TF.FilePolarity,Positive*%
%FSLAX46Y46*%
G04 Gerber Fmt 4.6, Leading zero omitted, Abs format (unit mm)*
G04 Created by KiCad (PCBNEW 9.0.7) date 2026-03-30 11:08:40*
%MOMM*%
%LPD*%
G01*
G04 APERTURE LIST*
%ADD10C,0.150000*%
%ADD11C,0.120000*%
%ADD12C,0.100000*%
G04 APERTURE END LIST*
D10*
X170239580Y-79866666D02*
X170287200Y-79914285D01*
X170287200Y-79914285D02*
X170334819Y-80057142D01*
X170334819Y-80057142D02*
X170334819Y-80152380D01*
X170334819Y-80152380D02*
X170287200Y-80295237D01*
X170287200Y-80295237D02*
X170191961Y-80390475D01*
X170191961Y-80390475D02*
X170096723Y-80438094D01*
X170096723Y-80438094D02*
X169906247Y-80485713D01*
X169906247Y-80485713D02*
X169763390Y-80485713D01*
X169763390Y-80485713D02*
X169572914Y-80438094D01*
X169572914Y-80438094D02*
X169477676Y-80390475D01*
X169477676Y-80390475D02*
X169382438Y-80295237D01*
X169382438Y-80295237D02*
X169334819Y-80152380D01*
X169334819Y-80152380D02*
X169334819Y-80057142D01*
X169334819Y-80057142D02*
X169382438Y-79914285D01*
X169382438Y-79914285D02*
X169430057Y-79866666D01*
X170334819Y-79390475D02*
X170334819Y-79199999D01*
X170334819Y-79199999D02*
X170287200Y-79104761D01*
X170287200Y-79104761D02*
X170239580Y-79057142D01*
X170239580Y-79057142D02*
X170096723Y-78961904D01*
X170096723Y-78961904D02*
X169906247Y-78914285D01*
X169906247Y-78914285D02*
X169525295Y-78914285D01*
X169525295Y-78914285D02*
X169430057Y-78961904D01*
X169430057Y-78961904D02*
X169382438Y-79009523D01*
X169382438Y-79009523D02*
X169334819Y-79104761D01*
X169334819Y-79104761D02*
X169334819Y-79295237D01*
X169334819Y-79295237D02*
X169382438Y-79390475D01*
X169382438Y-79390475D02*
X169430057Y-79438094D01*
X169430057Y-79438094D02*
X169525295Y-79485713D01*
X169525295Y-79485713D02*
X169763390Y-79485713D01*
X169763390Y-79485713D02*
X169858628Y-79438094D01*
X169858628Y-79438094D02*
X169906247Y-79390475D01*
X169906247Y-79390475D02*
X169953866Y-79295237D01*
X169953866Y-79295237D02*
X169953866Y-79104761D01*
X169953866Y-79104761D02*
X169906247Y-79009523D01*
X169906247Y-79009523D02*
X169858628Y-78961904D01*
X169858628Y-78961904D02*
X169763390Y-78914285D01*
X169857142Y-100659580D02*
X169809523Y-100707200D01*
X169809523Y-100707200D02*
X169666666Y-100754819D01*
X169666666Y-100754819D02*
X169571428Y-100754819D01*
X169571428Y-100754819D02*
X169428571Y-100707200D01*
X169428571Y-100707200D02*
X169333333Y-100611961D01*
X169333333Y-100611961D02*
X169285714Y-100516723D01*
X169285714Y-100516723D02*
X169238095Y-100326247D01*
X169238095Y-100326247D02*
X169238095Y-100183390D01*
X169238095Y-100183390D02*
X169285714Y-99992914D01*
X169285714Y-99992914D02*
X169333333Y-99897676D01*
X169333333Y-99897676D02*
X169428571Y-99802438D01*
X169428571Y-99802438D02*
X169571428Y-99754819D01*
X169571428Y-99754819D02*
X169666666Y-99754819D01*
X169666666Y-99754819D02*
X169809523Y-99802438D01*
X169809523Y-99802438D02*
X169857142Y-99850057D01*
X170809523Y-100754819D02*
X170238095Y-100754819D01*
X170523809Y-100754819D02*
X170523809Y-99754819D01*
X170523809Y-99754819D02*
X170428571Y-99897676D01*
X170428571Y-99897676D02*
X170333333Y-99992914D01*
X170333333Y-99992914D02*
X170238095Y-100040533D01*
X171714285Y-99754819D02*
X171238095Y-99754819D01*
X171238095Y-99754819D02*
X171190476Y-100231009D01*
X171190476Y-100231009D02*
X171238095Y-100183390D01*
X171238095Y-100183390D02*
X171333333Y-100135771D01*
X171333333Y-100135771D02*
X171571428Y-100135771D01*
X171571428Y-100135771D02*
X171666666Y-100183390D01*
X171666666Y-100183390D02*
X171714285Y-100231009D01*
X171714285Y-100231009D02*
X171761904Y-100326247D01*
X171761904Y-100326247D02*
X171761904Y-100564342D01*
X171761904Y-100564342D02*
X171714285Y-100659580D01*
X171714285Y-100659580D02*
X171666666Y-100707200D01*
X171666666Y-100707200D02*
X171571428Y-100754819D01*
X171571428Y-100754819D02*
X171333333Y-100754819D01*
X171333333Y-100754819D02*
X171238095Y-100707200D01*
X171238095Y-100707200D02*
X171190476Y-100659580D01*
X145057142Y-91859580D02*
X145009523Y-91907200D01*
X145009523Y-91907200D02*
X144866666Y-91954819D01*
X144866666Y-91954819D02*
X144771428Y-91954819D01*
X144771428Y-91954819D02*
X144628571Y-91907200D01*
X144628571Y-91907200D02*
X144533333Y-91811961D01*
X144533333Y-91811961D02*
X144485714Y-91716723D01*
X144485714Y-91716723D02*
X144438095Y-91526247D01*
X144438095Y-91526247D02*
X144438095Y-91383390D01*
X144438095Y-91383390D02*
X144485714Y-91192914D01*
X144485714Y-91192914D02*
X144533333Y-91097676D01*
X144533333Y-91097676D02*
X144628571Y-91002438D01*
X144628571Y-91002438D02*
X144771428Y-90954819D01*
X144771428Y-90954819D02*
X144866666Y-90954819D01*
X144866666Y-90954819D02*
X145009523Y-91002438D01*
X145009523Y-91002438D02*
X145057142Y-91050057D01*
X146009523Y-91954819D02*
X145438095Y-91954819D01*
X145723809Y-91954819D02*
X145723809Y-90954819D01*
X145723809Y-90954819D02*
X145628571Y-91097676D01*
X145628571Y-91097676D02*
X145533333Y-91192914D01*
X145533333Y-91192914D02*
X145438095Y-91240533D01*
X146866666Y-91288152D02*
X146866666Y-91954819D01*
X146628571Y-90907200D02*
X146390476Y-91621485D01*
X146390476Y-91621485D02*
X147009523Y-91621485D01*
X150694833Y-82067580D02*
X150647214Y-82115200D01*
X150647214Y-82115200D02*
X150504357Y-82162819D01*
X150504357Y-82162819D02*
X150409119Y-82162819D01*
X150409119Y-82162819D02*
X150266262Y-82115200D01*
X150266262Y-82115200D02*
X150171024Y-82019961D01*
X150171024Y-82019961D02*
X150123405Y-81924723D01*
X150123405Y-81924723D02*
X150075786Y-81734247D01*
X150075786Y-81734247D02*
X150075786Y-81591390D01*
X150075786Y-81591390D02*
X150123405Y-81400914D01*
X150123405Y-81400914D02*
X150171024Y-81305676D01*
X150171024Y-81305676D02*
X150266262Y-81210438D01*
X150266262Y-81210438D02*
X150409119Y-81162819D01*
X150409119Y-81162819D02*
X150504357Y-81162819D01*
X150504357Y-81162819D02*
X150647214Y-81210438D01*
X150647214Y-81210438D02*
X150694833Y-81258057D01*
X151647214Y-82162819D02*
X151075786Y-82162819D01*
X151361500Y-82162819D02*
X151361500Y-81162819D01*
X151361500Y-81162819D02*
X151266262Y-81305676D01*
X151266262Y-81305676D02*
X151171024Y-81400914D01*
X151171024Y-81400914D02*
X151075786Y-81448533D01*
X166935833Y-84984819D02*
X166602500Y-84508628D01*
X166364405Y-84984819D02*
X166364405Y-83984819D01*
X166364405Y-83984819D02*
X166745357Y-83984819D01*
X166745357Y-83984819D02*
X166840595Y-84032438D01*
X166840595Y-84032438D02*
X166888214Y-84080057D01*
X166888214Y-84080057D02*
X166935833Y-84175295D01*
X166935833Y-84175295D02*
X166935833Y-84318152D01*
X166935833Y-84318152D02*
X166888214Y-84413390D01*
X166888214Y-84413390D02*
X166840595Y-84461009D01*
X166840595Y-84461009D02*
X166745357Y-84508628D01*
X166745357Y-84508628D02*
X166364405Y-84508628D01*
X167269167Y-83984819D02*
X167935833Y-83984819D01*
X167935833Y-83984819D02*
X167507262Y-84984819D01*
X158863333Y-76204819D02*
X158530000Y-75728628D01*
X158291905Y-76204819D02*
X158291905Y-75204819D01*
X158291905Y-75204819D02*
X158672857Y-75204819D01*
X158672857Y-75204819D02*
X158768095Y-75252438D01*
X158768095Y-75252438D02*
X158815714Y-75300057D01*
X158815714Y-75300057D02*
X158863333Y-75395295D01*
X158863333Y-75395295D02*
X158863333Y-75538152D01*
X158863333Y-75538152D02*
X158815714Y-75633390D01*
X158815714Y-75633390D02*
X158768095Y-75681009D01*
X158768095Y-75681009D02*
X158672857Y-75728628D01*
X158672857Y-75728628D02*
X158291905Y-75728628D01*
X159720476Y-75204819D02*
X159530000Y-75204819D01*
X159530000Y-75204819D02*
X159434762Y-75252438D01*
X159434762Y-75252438D02*
X159387143Y-75300057D01*
X159387143Y-75300057D02*
X159291905Y-75442914D01*
X159291905Y-75442914D02*
X159244286Y-75633390D01*
X159244286Y-75633390D02*
X159244286Y-76014342D01*
X159244286Y-76014342D02*
X159291905Y-76109580D01*
X159291905Y-76109580D02*
X159339524Y-76157200D01*
X159339524Y-76157200D02*
X159434762Y-76204819D01*
X159434762Y-76204819D02*
X159625238Y-76204819D01*
X159625238Y-76204819D02*
X159720476Y-76157200D01*
X159720476Y-76157200D02*
X159768095Y-76109580D01*
X159768095Y-76109580D02*
X159815714Y-76014342D01*
X159815714Y-76014342D02*
X159815714Y-75776247D01*
X159815714Y-75776247D02*
X159768095Y-75681009D01*
X159768095Y-75681009D02*
X159720476Y-75633390D01*
X159720476Y-75633390D02*
X159625238Y-75585771D01*
X159625238Y-75585771D02*
X159434762Y-75585771D01*
X159434762Y-75585771D02*
X159339524Y-75633390D01*
X159339524Y-75633390D02*
X159291905Y-75681009D01*
X159291905Y-75681009D02*
X159244286Y-75776247D01*
X170057142Y-97459580D02*
X170009523Y-97507200D01*
X170009523Y-97507200D02*
X169866666Y-97554819D01*
X169866666Y-97554819D02*
X169771428Y-97554819D01*
X169771428Y-97554819D02*
X169628571Y-97507200D01*
X169628571Y-97507200D02*
X169533333Y-97411961D01*
X169533333Y-97411961D02*
X169485714Y-97316723D01*
X169485714Y-97316723D02*
X169438095Y-97126247D01*
X169438095Y-97126247D02*
X169438095Y-96983390D01*
X169438095Y-96983390D02*
X169485714Y-96792914D01*
X169485714Y-96792914D02*
X169533333Y-96697676D01*
X169533333Y-96697676D02*
X169628571Y-96602438D01*
X169628571Y-96602438D02*
X169771428Y-96554819D01*
X169771428Y-96554819D02*
X169866666Y-96554819D01*
X169866666Y-96554819D02*
X170009523Y-96602438D01*
X170009523Y-96602438D02*
X170057142Y-96650057D01*
X171009523Y-97554819D02*
X170438095Y-97554819D01*
X170723809Y-97554819D02*
X170723809Y-96554819D01*
X170723809Y-96554819D02*
X170628571Y-96697676D01*
X170628571Y-96697676D02*
X170533333Y-96792914D01*
X170533333Y-96792914D02*
X170438095Y-96840533D01*
X171866666Y-96554819D02*
X171676190Y-96554819D01*
X171676190Y-96554819D02*
X171580952Y-96602438D01*
X171580952Y-96602438D02*
X171533333Y-96650057D01*
X171533333Y-96650057D02*
X171438095Y-96792914D01*
X171438095Y-96792914D02*
X171390476Y-96983390D01*
X171390476Y-96983390D02*
X171390476Y-97364342D01*
X171390476Y-97364342D02*
X171438095Y-97459580D01*
X171438095Y-97459580D02*
X171485714Y-97507200D01*
X171485714Y-97507200D02*
X171580952Y-97554819D01*
X171580952Y-97554819D02*
X171771428Y-97554819D01*
X171771428Y-97554819D02*
X171866666Y-97507200D01*
X171866666Y-97507200D02*
X171914285Y-97459580D01*
X171914285Y-97459580D02*
X171961904Y-97364342D01*
X171961904Y-97364342D02*
X171961904Y-97126247D01*
X171961904Y-97126247D02*
X171914285Y-97031009D01*
X171914285Y-97031009D02*
X171866666Y-96983390D01*
X171866666Y-96983390D02*
X171771428Y-96935771D01*
X171771428Y-96935771D02*
X171580952Y-96935771D01*
X171580952Y-96935771D02*
X171485714Y-96983390D01*
X171485714Y-96983390D02*
X171438095Y-97031009D01*
X171438095Y-97031009D02*
X171390476Y-97126247D01*
X173313333Y-70679580D02*
X173265714Y-70727200D01*
X173265714Y-70727200D02*
X173122857Y-70774819D01*
X173122857Y-70774819D02*
X173027619Y-70774819D01*
X173027619Y-70774819D02*
X172884762Y-70727200D01*
X172884762Y-70727200D02*
X172789524Y-70631961D01*
X172789524Y-70631961D02*
X172741905Y-70536723D01*
X172741905Y-70536723D02*
X172694286Y-70346247D01*
X172694286Y-70346247D02*
X172694286Y-70203390D01*
X172694286Y-70203390D02*
X172741905Y-70012914D01*
X172741905Y-70012914D02*
X172789524Y-69917676D01*
X172789524Y-69917676D02*
X172884762Y-69822438D01*
X172884762Y-69822438D02*
X173027619Y-69774819D01*
X173027619Y-69774819D02*
X173122857Y-69774819D01*
X173122857Y-69774819D02*
X173265714Y-69822438D01*
X173265714Y-69822438D02*
X173313333Y-69870057D01*
X174170476Y-69774819D02*
X173980000Y-69774819D01*
X173980000Y-69774819D02*
X173884762Y-69822438D01*
X173884762Y-69822438D02*
X173837143Y-69870057D01*
X173837143Y-69870057D02*
X173741905Y-70012914D01*
X173741905Y-70012914D02*
X173694286Y-70203390D01*
X173694286Y-70203390D02*
X173694286Y-70584342D01*
X173694286Y-70584342D02*
X173741905Y-70679580D01*
X173741905Y-70679580D02*
X173789524Y-70727200D01*
X173789524Y-70727200D02*
X173884762Y-70774819D01*
X173884762Y-70774819D02*
X174075238Y-70774819D01*
X174075238Y-70774819D02*
X174170476Y-70727200D01*
X174170476Y-70727200D02*
X174218095Y-70679580D01*
X174218095Y-70679580D02*
X174265714Y-70584342D01*
X174265714Y-70584342D02*
X174265714Y-70346247D01*
X174265714Y-70346247D02*
X174218095Y-70251009D01*
X174218095Y-70251009D02*
X174170476Y-70203390D01*
X174170476Y-70203390D02*
X174075238Y-70155771D01*
X174075238Y-70155771D02*
X173884762Y-70155771D01*
X173884762Y-70155771D02*
X173789524Y-70203390D01*
X173789524Y-70203390D02*
X173741905Y-70251009D01*
X173741905Y-70251009D02*
X173694286Y-70346247D01*
X167568333Y-69559580D02*
X167520714Y-69607200D01*
X167520714Y-69607200D02*
X167377857Y-69654819D01*
X167377857Y-69654819D02*
X167282619Y-69654819D01*
X167282619Y-69654819D02*
X167139762Y-69607200D01*
X167139762Y-69607200D02*
X167044524Y-69511961D01*
X167044524Y-69511961D02*
X166996905Y-69416723D01*
X166996905Y-69416723D02*
X166949286Y-69226247D01*
X166949286Y-69226247D02*
X166949286Y-69083390D01*
X166949286Y-69083390D02*
X166996905Y-68892914D01*
X166996905Y-68892914D02*
X167044524Y-68797676D01*
X167044524Y-68797676D02*
X167139762Y-68702438D01*
X167139762Y-68702438D02*
X167282619Y-68654819D01*
X167282619Y-68654819D02*
X167377857Y-68654819D01*
X167377857Y-68654819D02*
X167520714Y-68702438D01*
X167520714Y-68702438D02*
X167568333Y-68750057D01*
X168473095Y-68654819D02*
X167996905Y-68654819D01*
X167996905Y-68654819D02*
X167949286Y-69131009D01*
X167949286Y-69131009D02*
X167996905Y-69083390D01*
X167996905Y-69083390D02*
X168092143Y-69035771D01*
X168092143Y-69035771D02*
X168330238Y-69035771D01*
X168330238Y-69035771D02*
X168425476Y-69083390D01*
X168425476Y-69083390D02*
X168473095Y-69131009D01*
X168473095Y-69131009D02*
X168520714Y-69226247D01*
X168520714Y-69226247D02*
X168520714Y-69464342D01*
X168520714Y-69464342D02*
X168473095Y-69559580D01*
X168473095Y-69559580D02*
X168425476Y-69607200D01*
X168425476Y-69607200D02*
X168330238Y-69654819D01*
X168330238Y-69654819D02*
X168092143Y-69654819D01*
X168092143Y-69654819D02*
X167996905Y-69607200D01*
X167996905Y-69607200D02*
X167949286Y-69559580D01*
X176513333Y-84759580D02*
X176465714Y-84807200D01*
X176465714Y-84807200D02*
X176322857Y-84854819D01*
X176322857Y-84854819D02*
X176227619Y-84854819D01*
X176227619Y-84854819D02*
X176084762Y-84807200D01*
X176084762Y-84807200D02*
X175989524Y-84711961D01*
X175989524Y-84711961D02*
X175941905Y-84616723D01*
X175941905Y-84616723D02*
X175894286Y-84426247D01*
X175894286Y-84426247D02*
X175894286Y-84283390D01*
X175894286Y-84283390D02*
X175941905Y-84092914D01*
X175941905Y-84092914D02*
X175989524Y-83997676D01*
X175989524Y-83997676D02*
X176084762Y-83902438D01*
X176084762Y-83902438D02*
X176227619Y-83854819D01*
X176227619Y-83854819D02*
X176322857Y-83854819D01*
X176322857Y-83854819D02*
X176465714Y-83902438D01*
X176465714Y-83902438D02*
X176513333Y-83950057D01*
X177084762Y-84283390D02*
X176989524Y-84235771D01*
X176989524Y-84235771D02*
X176941905Y-84188152D01*
X176941905Y-84188152D02*
X176894286Y-84092914D01*
X176894286Y-84092914D02*
X176894286Y-84045295D01*
X176894286Y-84045295D02*
X176941905Y-83950057D01*
X176941905Y-83950057D02*
X176989524Y-83902438D01*
X176989524Y-83902438D02*
X177084762Y-83854819D01*
X177084762Y-83854819D02*
X177275238Y-83854819D01*
X177275238Y-83854819D02*
X177370476Y-83902438D01*
X177370476Y-83902438D02*
X177418095Y-83950057D01*
X177418095Y-83950057D02*
X177465714Y-84045295D01*
X177465714Y-84045295D02*
X177465714Y-84092914D01*
X177465714Y-84092914D02*
X177418095Y-84188152D01*
X177418095Y-84188152D02*
X177370476Y-84235771D01*
X177370476Y-84235771D02*
X177275238Y-84283390D01*
X177275238Y-84283390D02*
X177084762Y-84283390D01*
X177084762Y-84283390D02*
X176989524Y-84331009D01*
X176989524Y-84331009D02*
X176941905Y-84378628D01*
X176941905Y-84378628D02*
X176894286Y-84473866D01*
X176894286Y-84473866D02*
X176894286Y-84664342D01*
X176894286Y-84664342D02*
X176941905Y-84759580D01*
X176941905Y-84759580D02*
X176989524Y-84807200D01*
X176989524Y-84807200D02*
X177084762Y-84854819D01*
X177084762Y-84854819D02*
X177275238Y-84854819D01*
X177275238Y-84854819D02*
X177370476Y-84807200D01*
X177370476Y-84807200D02*
X177418095Y-84759580D01*
X177418095Y-84759580D02*
X177465714Y-84664342D01*
X177465714Y-84664342D02*
X177465714Y-84473866D01*
X177465714Y-84473866D02*
X177418095Y-84378628D01*
X177418095Y-84378628D02*
X177370476Y-84331009D01*
X177370476Y-84331009D02*
X177275238Y-84283390D01*
X150444833Y-79567580D02*
X150397214Y-79615200D01*
X150397214Y-79615200D02*
X150254357Y-79662819D01*
X150254357Y-79662819D02*
X150159119Y-79662819D01*
X150159119Y-79662819D02*
X150016262Y-79615200D01*
X150016262Y-79615200D02*
X149921024Y-79519961D01*
X149921024Y-79519961D02*
X149873405Y-79424723D01*
X149873405Y-79424723D02*
X149825786Y-79234247D01*
X149825786Y-79234247D02*
X149825786Y-79091390D01*
X149825786Y-79091390D02*
X149873405Y-78900914D01*
X149873405Y-78900914D02*
X149921024Y-78805676D01*
X149921024Y-78805676D02*
X150016262Y-78710438D01*
X150016262Y-78710438D02*
X150159119Y-78662819D01*
X150159119Y-78662819D02*
X150254357Y-78662819D01*
X150254357Y-78662819D02*
X150397214Y-78710438D01*
X150397214Y-78710438D02*
X150444833Y-78758057D01*
X150778167Y-78662819D02*
X151397214Y-78662819D01*
X151397214Y-78662819D02*
X151063881Y-79043771D01*
X151063881Y-79043771D02*
X151206738Y-79043771D01*
X151206738Y-79043771D02*
X151301976Y-79091390D01*
X151301976Y-79091390D02*
X151349595Y-79139009D01*
X151349595Y-79139009D02*
X151397214Y-79234247D01*
X151397214Y-79234247D02*
X151397214Y-79472342D01*
X151397214Y-79472342D02*
X151349595Y-79567580D01*
X151349595Y-79567580D02*
X151301976Y-79615200D01*
X151301976Y-79615200D02*
X151206738Y-79662819D01*
X151206738Y-79662819D02*
X150921024Y-79662819D01*
X150921024Y-79662819D02*
X150825786Y-79615200D01*
X150825786Y-79615200D02*
X150778167Y-79567580D01*
X163154819Y-94061904D02*
X163964342Y-94061904D01*
X163964342Y-94061904D02*
X164059580Y-94014285D01*
X164059580Y-94014285D02*
X164107200Y-93966666D01*
X164107200Y-93966666D02*
X164154819Y-93871428D01*
X164154819Y-93871428D02*
X164154819Y-93680952D01*
X164154819Y-93680952D02*
X164107200Y-93585714D01*
X164107200Y-93585714D02*
X164059580Y-93538095D01*
X164059580Y-93538095D02*
X163964342Y-93490476D01*
X163964342Y-93490476D02*
X163154819Y-93490476D01*
X163488152Y-92585714D02*
X164154819Y-92585714D01*
X163107200Y-92823809D02*
X163821485Y-93061904D01*
X163821485Y-93061904D02*
X163821485Y-92442857D01*
X168018333Y-72554819D02*
X167685000Y-72078628D01*
X167446905Y-72554819D02*
X167446905Y-71554819D01*
X167446905Y-71554819D02*
X167827857Y-71554819D01*
X167827857Y-71554819D02*
X167923095Y-71602438D01*
X167923095Y-71602438D02*
X167970714Y-71650057D01*
X167970714Y-71650057D02*
X168018333Y-71745295D01*
X168018333Y-71745295D02*
X168018333Y-71888152D01*
X168018333Y-71888152D02*
X167970714Y-71983390D01*
X167970714Y-71983390D02*
X167923095Y-72031009D01*
X167923095Y-72031009D02*
X167827857Y-72078628D01*
X167827857Y-72078628D02*
X167446905Y-72078628D01*
X168875476Y-71888152D02*
X168875476Y-72554819D01*
X168637381Y-71507200D02*
X168399286Y-72221485D01*
X168399286Y-72221485D02*
X169018333Y-72221485D01*
X135154819Y-98042857D02*
X134678628Y-98376190D01*
X135154819Y-98614285D02*
X134154819Y-98614285D01*
X134154819Y-98614285D02*
X134154819Y-98233333D01*
X134154819Y-98233333D02*
X134202438Y-98138095D01*
X134202438Y-98138095D02*
X134250057Y-98090476D01*
X134250057Y-98090476D02*
X134345295Y-98042857D01*
X134345295Y-98042857D02*
X134488152Y-98042857D01*
X134488152Y-98042857D02*
X134583390Y-98090476D01*
X134583390Y-98090476D02*
X134631009Y-98138095D01*
X134631009Y-98138095D02*
X134678628Y-98233333D01*
X134678628Y-98233333D02*
X134678628Y-98614285D01*
X135154819Y-97090476D02*
X135154819Y-97661904D01*
X135154819Y-97376190D02*
X134154819Y-97376190D01*
X134154819Y-97376190D02*
X134297676Y-97471428D01*
X134297676Y-97471428D02*
X134392914Y-97566666D01*
X134392914Y-97566666D02*
X134440533Y-97661904D01*
X135154819Y-96138095D02*
X135154819Y-96709523D01*
X135154819Y-96423809D02*
X134154819Y-96423809D01*
X134154819Y-96423809D02*
X134297676Y-96519047D01*
X134297676Y-96519047D02*
X134392914Y-96614285D01*
X134392914Y-96614285D02*
X134440533Y-96709523D01*
X155766666Y-97454819D02*
X155766666Y-98169104D01*
X155766666Y-98169104D02*
X155719047Y-98311961D01*
X155719047Y-98311961D02*
X155623809Y-98407200D01*
X155623809Y-98407200D02*
X155480952Y-98454819D01*
X155480952Y-98454819D02*
X155385714Y-98454819D01*
X156242857Y-98454819D02*
X156242857Y-97454819D01*
X156242857Y-97454819D02*
X156623809Y-97454819D01*
X156623809Y-97454819D02*
X156719047Y-97502438D01*
X156719047Y-97502438D02*
X156766666Y-97550057D01*
X156766666Y-97550057D02*
X156814285Y-97645295D01*
X156814285Y-97645295D02*
X156814285Y-97788152D01*
X156814285Y-97788152D02*
X156766666Y-97883390D01*
X156766666Y-97883390D02*
X156719047Y-97931009D01*
X156719047Y-97931009D02*
X156623809Y-97978628D01*
X156623809Y-97978628D02*
X156242857Y-97978628D01*
X157671428Y-97454819D02*
X157480952Y-97454819D01*
X157480952Y-97454819D02*
X157385714Y-97502438D01*
X157385714Y-97502438D02*
X157338095Y-97550057D01*
X157338095Y-97550057D02*
X157242857Y-97692914D01*
X157242857Y-97692914D02*
X157195238Y-97883390D01*
X157195238Y-97883390D02*
X157195238Y-98264342D01*
X157195238Y-98264342D02*
X157242857Y-98359580D01*
X157242857Y-98359580D02*
X157290476Y-98407200D01*
X157290476Y-98407200D02*
X157385714Y-98454819D01*
X157385714Y-98454819D02*
X157576190Y-98454819D01*
X157576190Y-98454819D02*
X157671428Y-98407200D01*
X157671428Y-98407200D02*
X157719047Y-98359580D01*
X157719047Y-98359580D02*
X157766666Y-98264342D01*
X157766666Y-98264342D02*
X157766666Y-98026247D01*
X157766666Y-98026247D02*
X157719047Y-97931009D01*
X157719047Y-97931009D02*
X157671428Y-97883390D01*
X157671428Y-97883390D02*
X157576190Y-97835771D01*
X157576190Y-97835771D02*
X157385714Y-97835771D01*
X157385714Y-97835771D02*
X157290476Y-97883390D01*
X157290476Y-97883390D02*
X157242857Y-97931009D01*
X157242857Y-97931009D02*
X157195238Y-98026247D01*
X118514819Y-83133333D02*
X119229104Y-83133333D01*
X119229104Y-83133333D02*
X119371961Y-83180952D01*
X119371961Y-83180952D02*
X119467200Y-83276190D01*
X119467200Y-83276190D02*
X119514819Y-83419047D01*
X119514819Y-83419047D02*
X119514819Y-83514285D01*
X119514819Y-82133333D02*
X119514819Y-82704761D01*
X119514819Y-82419047D02*
X118514819Y-82419047D01*
X118514819Y-82419047D02*
X118657676Y-82514285D01*
X118657676Y-82514285D02*
X118752914Y-82609523D01*
X118752914Y-82609523D02*
X118800533Y-82704761D01*
X150407333Y-77067580D02*
X150359714Y-77115200D01*
X150359714Y-77115200D02*
X150216857Y-77162819D01*
X150216857Y-77162819D02*
X150121619Y-77162819D01*
X150121619Y-77162819D02*
X149978762Y-77115200D01*
X149978762Y-77115200D02*
X149883524Y-77019961D01*
X149883524Y-77019961D02*
X149835905Y-76924723D01*
X149835905Y-76924723D02*
X149788286Y-76734247D01*
X149788286Y-76734247D02*
X149788286Y-76591390D01*
X149788286Y-76591390D02*
X149835905Y-76400914D01*
X149835905Y-76400914D02*
X149883524Y-76305676D01*
X149883524Y-76305676D02*
X149978762Y-76210438D01*
X149978762Y-76210438D02*
X150121619Y-76162819D01*
X150121619Y-76162819D02*
X150216857Y-76162819D01*
X150216857Y-76162819D02*
X150359714Y-76210438D01*
X150359714Y-76210438D02*
X150407333Y-76258057D01*
X151264476Y-76496152D02*
X151264476Y-77162819D01*
X151026381Y-76115200D02*
X150788286Y-76829485D01*
X150788286Y-76829485D02*
X151407333Y-76829485D01*
X156754819Y-94933333D02*
X157469104Y-94933333D01*
X157469104Y-94933333D02*
X157611961Y-94980952D01*
X157611961Y-94980952D02*
X157707200Y-95076190D01*
X157707200Y-95076190D02*
X157754819Y-95219047D01*
X157754819Y-95219047D02*
X157754819Y-95314285D01*
X157754819Y-94457142D02*
X156754819Y-94457142D01*
X156754819Y-94457142D02*
X156754819Y-94076190D01*
X156754819Y-94076190D02*
X156802438Y-93980952D01*
X156802438Y-93980952D02*
X156850057Y-93933333D01*
X156850057Y-93933333D02*
X156945295Y-93885714D01*
X156945295Y-93885714D02*
X157088152Y-93885714D01*
X157088152Y-93885714D02*
X157183390Y-93933333D01*
X157183390Y-93933333D02*
X157231009Y-93980952D01*
X157231009Y-93980952D02*
X157278628Y-94076190D01*
X157278628Y-94076190D02*
X157278628Y-94457142D01*
X156754819Y-93552380D02*
X156754819Y-92885714D01*
X156754819Y-92885714D02*
X157754819Y-93314285D01*
X134968095Y-69979819D02*
X134968095Y-70789342D01*
X134968095Y-70789342D02*
X135015714Y-70884580D01*
X135015714Y-70884580D02*
X135063333Y-70932200D01*
X135063333Y-70932200D02*
X135158571Y-70979819D01*
X135158571Y-70979819D02*
X135349047Y-70979819D01*
X135349047Y-70979819D02*
X135444285Y-70932200D01*
X135444285Y-70932200D02*
X135491904Y-70884580D01*
X135491904Y-70884580D02*
X135539523Y-70789342D01*
X135539523Y-70789342D02*
X135539523Y-69979819D01*
X136539523Y-70979819D02*
X135968095Y-70979819D01*
X136253809Y-70979819D02*
X136253809Y-69979819D01*
X136253809Y-69979819D02*
X136158571Y-70122676D01*
X136158571Y-70122676D02*
X136063333Y-70217914D01*
X136063333Y-70217914D02*
X135968095Y-70265533D01*
X153359580Y-89042857D02*
X153407200Y-89090476D01*
X153407200Y-89090476D02*
X153454819Y-89233333D01*
X153454819Y-89233333D02*
X153454819Y-89328571D01*
X153454819Y-89328571D02*
X153407200Y-89471428D01*
X153407200Y-89471428D02*
X153311961Y-89566666D01*
X153311961Y-89566666D02*
X153216723Y-89614285D01*
X153216723Y-89614285D02*
X153026247Y-89661904D01*
X153026247Y-89661904D02*
X152883390Y-89661904D01*
X152883390Y-89661904D02*
X152692914Y-89614285D01*
X152692914Y-89614285D02*
X152597676Y-89566666D01*
X152597676Y-89566666D02*
X152502438Y-89471428D01*
X152502438Y-89471428D02*
X152454819Y-89328571D01*
X152454819Y-89328571D02*
X152454819Y-89233333D01*
X152454819Y-89233333D02*
X152502438Y-89090476D01*
X152502438Y-89090476D02*
X152550057Y-89042857D01*
X153454819Y-88090476D02*
X153454819Y-88661904D01*
X153454819Y-88376190D02*
X152454819Y-88376190D01*
X152454819Y-88376190D02*
X152597676Y-88471428D01*
X152597676Y-88471428D02*
X152692914Y-88566666D01*
X152692914Y-88566666D02*
X152740533Y-88661904D01*
X152454819Y-87757142D02*
X152454819Y-87138095D01*
X152454819Y-87138095D02*
X152835771Y-87471428D01*
X152835771Y-87471428D02*
X152835771Y-87328571D01*
X152835771Y-87328571D02*
X152883390Y-87233333D01*
X152883390Y-87233333D02*
X152931009Y-87185714D01*
X152931009Y-87185714D02*
X153026247Y-87138095D01*
X153026247Y-87138095D02*
X153264342Y-87138095D01*
X153264342Y-87138095D02*
X153359580Y-87185714D01*
X153359580Y-87185714D02*
X153407200Y-87233333D01*
X153407200Y-87233333D02*
X153454819Y-87328571D01*
X153454819Y-87328571D02*
X153454819Y-87614285D01*
X153454819Y-87614285D02*
X153407200Y-87709523D01*
X153407200Y-87709523D02*
X153359580Y-87757142D01*
X139254819Y-97842857D02*
X138778628Y-98176190D01*
X139254819Y-98414285D02*
X138254819Y-98414285D01*
X138254819Y-98414285D02*
X138254819Y-98033333D01*
X138254819Y-98033333D02*
X138302438Y-97938095D01*
X138302438Y-97938095D02*
X138350057Y-97890476D01*
X138350057Y-97890476D02*
X138445295Y-97842857D01*
X138445295Y-97842857D02*
X138588152Y-97842857D01*
X138588152Y-97842857D02*
X138683390Y-97890476D01*
X138683390Y-97890476D02*
X138731009Y-97938095D01*
X138731009Y-97938095D02*
X138778628Y-98033333D01*
X138778628Y-98033333D02*
X138778628Y-98414285D01*
X139254819Y-96890476D02*
X139254819Y-97461904D01*
X139254819Y-97176190D02*
X138254819Y-97176190D01*
X138254819Y-97176190D02*
X138397676Y-97271428D01*
X138397676Y-97271428D02*
X138492914Y-97366666D01*
X138492914Y-97366666D02*
X138540533Y-97461904D01*
X138350057Y-96509523D02*
X138302438Y-96461904D01*
X138302438Y-96461904D02*
X138254819Y-96366666D01*
X138254819Y-96366666D02*
X138254819Y-96128571D01*
X138254819Y-96128571D02*
X138302438Y-96033333D01*
X138302438Y-96033333D02*
X138350057Y-95985714D01*
X138350057Y-95985714D02*
X138445295Y-95938095D01*
X138445295Y-95938095D02*
X138540533Y-95938095D01*
X138540533Y-95938095D02*
X138683390Y-95985714D01*
X138683390Y-95985714D02*
X139254819Y-96557142D01*
X139254819Y-96557142D02*
X139254819Y-95938095D01*
X147513333Y-69824819D02*
X147180000Y-69348628D01*
X146941905Y-69824819D02*
X146941905Y-68824819D01*
X146941905Y-68824819D02*
X147322857Y-68824819D01*
X147322857Y-68824819D02*
X147418095Y-68872438D01*
X147418095Y-68872438D02*
X147465714Y-68920057D01*
X147465714Y-68920057D02*
X147513333Y-69015295D01*
X147513333Y-69015295D02*
X147513333Y-69158152D01*
X147513333Y-69158152D02*
X147465714Y-69253390D01*
X147465714Y-69253390D02*
X147418095Y-69301009D01*
X147418095Y-69301009D02*
X147322857Y-69348628D01*
X147322857Y-69348628D02*
X146941905Y-69348628D01*
X148465714Y-69824819D02*
X147894286Y-69824819D01*
X148180000Y-69824819D02*
X148180000Y-68824819D01*
X148180000Y-68824819D02*
X148084762Y-68967676D01*
X148084762Y-68967676D02*
X147989524Y-69062914D01*
X147989524Y-69062914D02*
X147894286Y-69110533D01*
X158613333Y-83554819D02*
X158280000Y-83078628D01*
X158041905Y-83554819D02*
X158041905Y-82554819D01*
X158041905Y-82554819D02*
X158422857Y-82554819D01*
X158422857Y-82554819D02*
X158518095Y-82602438D01*
X158518095Y-82602438D02*
X158565714Y-82650057D01*
X158565714Y-82650057D02*
X158613333Y-82745295D01*
X158613333Y-82745295D02*
X158613333Y-82888152D01*
X158613333Y-82888152D02*
X158565714Y-82983390D01*
X158565714Y-82983390D02*
X158518095Y-83031009D01*
X158518095Y-83031009D02*
X158422857Y-83078628D01*
X158422857Y-83078628D02*
X158041905Y-83078628D01*
X158994286Y-82650057D02*
X159041905Y-82602438D01*
X159041905Y-82602438D02*
X159137143Y-82554819D01*
X159137143Y-82554819D02*
X159375238Y-82554819D01*
X159375238Y-82554819D02*
X159470476Y-82602438D01*
X159470476Y-82602438D02*
X159518095Y-82650057D01*
X159518095Y-82650057D02*
X159565714Y-82745295D01*
X159565714Y-82745295D02*
X159565714Y-82840533D01*
X159565714Y-82840533D02*
X159518095Y-82983390D01*
X159518095Y-82983390D02*
X158946667Y-83554819D01*
X158946667Y-83554819D02*
X159565714Y-83554819D01*
X156234819Y-103633333D02*
X156949104Y-103633333D01*
X156949104Y-103633333D02*
X157091961Y-103680952D01*
X157091961Y-103680952D02*
X157187200Y-103776190D01*
X157187200Y-103776190D02*
X157234819Y-103919047D01*
X157234819Y-103919047D02*
X157234819Y-104014285D01*
X156234819Y-103252380D02*
X156234819Y-102633333D01*
X156234819Y-102633333D02*
X156615771Y-102966666D01*
X156615771Y-102966666D02*
X156615771Y-102823809D01*
X156615771Y-102823809D02*
X156663390Y-102728571D01*
X156663390Y-102728571D02*
X156711009Y-102680952D01*
X156711009Y-102680952D02*
X156806247Y-102633333D01*
X156806247Y-102633333D02*
X157044342Y-102633333D01*
X157044342Y-102633333D02*
X157139580Y-102680952D01*
X157139580Y-102680952D02*
X157187200Y-102728571D01*
X157187200Y-102728571D02*
X157234819Y-102823809D01*
X157234819Y-102823809D02*
X157234819Y-103109523D01*
X157234819Y-103109523D02*
X157187200Y-103204761D01*
X157187200Y-103204761D02*
X157139580Y-103252380D01*
X150444833Y-74567580D02*
X150397214Y-74615200D01*
X150397214Y-74615200D02*
X150254357Y-74662819D01*
X150254357Y-74662819D02*
X150159119Y-74662819D01*
X150159119Y-74662819D02*
X150016262Y-74615200D01*
X150016262Y-74615200D02*
X149921024Y-74519961D01*
X149921024Y-74519961D02*
X149873405Y-74424723D01*
X149873405Y-74424723D02*
X149825786Y-74234247D01*
X149825786Y-74234247D02*
X149825786Y-74091390D01*
X149825786Y-74091390D02*
X149873405Y-73900914D01*
X149873405Y-73900914D02*
X149921024Y-73805676D01*
X149921024Y-73805676D02*
X150016262Y-73710438D01*
X150016262Y-73710438D02*
X150159119Y-73662819D01*
X150159119Y-73662819D02*
X150254357Y-73662819D01*
X150254357Y-73662819D02*
X150397214Y-73710438D01*
X150397214Y-73710438D02*
X150444833Y-73758057D01*
X150825786Y-73758057D02*
X150873405Y-73710438D01*
X150873405Y-73710438D02*
X150968643Y-73662819D01*
X150968643Y-73662819D02*
X151206738Y-73662819D01*
X151206738Y-73662819D02*
X151301976Y-73710438D01*
X151301976Y-73710438D02*
X151349595Y-73758057D01*
X151349595Y-73758057D02*
X151397214Y-73853295D01*
X151397214Y-73853295D02*
X151397214Y-73948533D01*
X151397214Y-73948533D02*
X151349595Y-74091390D01*
X151349595Y-74091390D02*
X150778167Y-74662819D01*
X150778167Y-74662819D02*
X151397214Y-74662819D01*
X118424819Y-93186904D02*
X119234342Y-93186904D01*
X119234342Y-93186904D02*
X119329580Y-93139285D01*
X119329580Y-93139285D02*
X119377200Y-93091666D01*
X119377200Y-93091666D02*
X119424819Y-92996428D01*
X119424819Y-92996428D02*
X119424819Y-92805952D01*
X119424819Y-92805952D02*
X119377200Y-92710714D01*
X119377200Y-92710714D02*
X119329580Y-92663095D01*
X119329580Y-92663095D02*
X119234342Y-92615476D01*
X119234342Y-92615476D02*
X118424819Y-92615476D01*
X118424819Y-92234523D02*
X118424819Y-91615476D01*
X118424819Y-91615476D02*
X118805771Y-91948809D01*
X118805771Y-91948809D02*
X118805771Y-91805952D01*
X118805771Y-91805952D02*
X118853390Y-91710714D01*
X118853390Y-91710714D02*
X118901009Y-91663095D01*
X118901009Y-91663095D02*
X118996247Y-91615476D01*
X118996247Y-91615476D02*
X119234342Y-91615476D01*
X119234342Y-91615476D02*
X119329580Y-91663095D01*
X119329580Y-91663095D02*
X119377200Y-91710714D01*
X119377200Y-91710714D02*
X119424819Y-91805952D01*
X119424819Y-91805952D02*
X119424819Y-92091666D01*
X119424819Y-92091666D02*
X119377200Y-92186904D01*
X119377200Y-92186904D02*
X119329580Y-92234523D01*
X131557142Y-79054819D02*
X131223809Y-78578628D01*
X130985714Y-79054819D02*
X130985714Y-78054819D01*
X130985714Y-78054819D02*
X131366666Y-78054819D01*
X131366666Y-78054819D02*
X131461904Y-78102438D01*
X131461904Y-78102438D02*
X131509523Y-78150057D01*
X131509523Y-78150057D02*
X131557142Y-78245295D01*
X131557142Y-78245295D02*
X131557142Y-78388152D01*
X131557142Y-78388152D02*
X131509523Y-78483390D01*
X131509523Y-78483390D02*
X131461904Y-78531009D01*
X131461904Y-78531009D02*
X131366666Y-78578628D01*
X131366666Y-78578628D02*
X130985714Y-78578628D01*
X132509523Y-79054819D02*
X131938095Y-79054819D01*
X132223809Y-79054819D02*
X132223809Y-78054819D01*
X132223809Y-78054819D02*
X132128571Y-78197676D01*
X132128571Y-78197676D02*
X132033333Y-78292914D01*
X132033333Y-78292914D02*
X131938095Y-78340533D01*
X133128571Y-78054819D02*
X133223809Y-78054819D01*
X133223809Y-78054819D02*
X133319047Y-78102438D01*
X133319047Y-78102438D02*
X133366666Y-78150057D01*
X133366666Y-78150057D02*
X133414285Y-78245295D01*
X133414285Y-78245295D02*
X133461904Y-78435771D01*
X133461904Y-78435771D02*
X133461904Y-78673866D01*
X133461904Y-78673866D02*
X133414285Y-78864342D01*
X133414285Y-78864342D02*
X133366666Y-78959580D01*
X133366666Y-78959580D02*
X133319047Y-79007200D01*
X133319047Y-79007200D02*
X133223809Y-79054819D01*
X133223809Y-79054819D02*
X133128571Y-79054819D01*
X133128571Y-79054819D02*
X133033333Y-79007200D01*
X133033333Y-79007200D02*
X132985714Y-78959580D01*
X132985714Y-78959580D02*
X132938095Y-78864342D01*
X132938095Y-78864342D02*
X132890476Y-78673866D01*
X132890476Y-78673866D02*
X132890476Y-78435771D01*
X132890476Y-78435771D02*
X132938095Y-78245295D01*
X132938095Y-78245295D02*
X132985714Y-78150057D01*
X132985714Y-78150057D02*
X133033333Y-78102438D01*
X133033333Y-78102438D02*
X133128571Y-78054819D01*
X127113333Y-68454819D02*
X126780000Y-67978628D01*
X126541905Y-68454819D02*
X126541905Y-67454819D01*
X126541905Y-67454819D02*
X126922857Y-67454819D01*
X126922857Y-67454819D02*
X127018095Y-67502438D01*
X127018095Y-67502438D02*
X127065714Y-67550057D01*
X127065714Y-67550057D02*
X127113333Y-67645295D01*
X127113333Y-67645295D02*
X127113333Y-67788152D01*
X127113333Y-67788152D02*
X127065714Y-67883390D01*
X127065714Y-67883390D02*
X127018095Y-67931009D01*
X127018095Y-67931009D02*
X126922857Y-67978628D01*
X126922857Y-67978628D02*
X126541905Y-67978628D01*
X127684762Y-67883390D02*
X127589524Y-67835771D01*
X127589524Y-67835771D02*
X127541905Y-67788152D01*
X127541905Y-67788152D02*
X127494286Y-67692914D01*
X127494286Y-67692914D02*
X127494286Y-67645295D01*
X127494286Y-67645295D02*
X127541905Y-67550057D01*
X127541905Y-67550057D02*
X127589524Y-67502438D01*
X127589524Y-67502438D02*
X127684762Y-67454819D01*
X127684762Y-67454819D02*
X127875238Y-67454819D01*
X127875238Y-67454819D02*
X127970476Y-67502438D01*
X127970476Y-67502438D02*
X128018095Y-67550057D01*
X128018095Y-67550057D02*
X128065714Y-67645295D01*
X128065714Y-67645295D02*
X128065714Y-67692914D01*
X128065714Y-67692914D02*
X128018095Y-67788152D01*
X128018095Y-67788152D02*
X127970476Y-67835771D01*
X127970476Y-67835771D02*
X127875238Y-67883390D01*
X127875238Y-67883390D02*
X127684762Y-67883390D01*
X127684762Y-67883390D02*
X127589524Y-67931009D01*
X127589524Y-67931009D02*
X127541905Y-67978628D01*
X127541905Y-67978628D02*
X127494286Y-68073866D01*
X127494286Y-68073866D02*
X127494286Y-68264342D01*
X127494286Y-68264342D02*
X127541905Y-68359580D01*
X127541905Y-68359580D02*
X127589524Y-68407200D01*
X127589524Y-68407200D02*
X127684762Y-68454819D01*
X127684762Y-68454819D02*
X127875238Y-68454819D01*
X127875238Y-68454819D02*
X127970476Y-68407200D01*
X127970476Y-68407200D02*
X128018095Y-68359580D01*
X128018095Y-68359580D02*
X128065714Y-68264342D01*
X128065714Y-68264342D02*
X128065714Y-68073866D01*
X128065714Y-68073866D02*
X128018095Y-67978628D01*
X128018095Y-67978628D02*
X127970476Y-67931009D01*
X127970476Y-67931009D02*
X127875238Y-67883390D01*
X158863333Y-80854819D02*
X158530000Y-80378628D01*
X158291905Y-80854819D02*
X158291905Y-79854819D01*
X158291905Y-79854819D02*
X158672857Y-79854819D01*
X158672857Y-79854819D02*
X158768095Y-79902438D01*
X158768095Y-79902438D02*
X158815714Y-79950057D01*
X158815714Y-79950057D02*
X158863333Y-80045295D01*
X158863333Y-80045295D02*
X158863333Y-80188152D01*
X158863333Y-80188152D02*
X158815714Y-80283390D01*
X158815714Y-80283390D02*
X158768095Y-80331009D01*
X158768095Y-80331009D02*
X158672857Y-80378628D01*
X158672857Y-80378628D02*
X158291905Y-80378628D01*
X159768095Y-79854819D02*
X159291905Y-79854819D01*
X159291905Y-79854819D02*
X159244286Y-80331009D01*
X159244286Y-80331009D02*
X159291905Y-80283390D01*
X159291905Y-80283390D02*
X159387143Y-80235771D01*
X159387143Y-80235771D02*
X159625238Y-80235771D01*
X159625238Y-80235771D02*
X159720476Y-80283390D01*
X159720476Y-80283390D02*
X159768095Y-80331009D01*
X159768095Y-80331009D02*
X159815714Y-80426247D01*
X159815714Y-80426247D02*
X159815714Y-80664342D01*
X159815714Y-80664342D02*
X159768095Y-80759580D01*
X159768095Y-80759580D02*
X159720476Y-80807200D01*
X159720476Y-80807200D02*
X159625238Y-80854819D01*
X159625238Y-80854819D02*
X159387143Y-80854819D01*
X159387143Y-80854819D02*
X159291905Y-80807200D01*
X159291905Y-80807200D02*
X159244286Y-80759580D01*
X125757142Y-78479580D02*
X125709523Y-78527200D01*
X125709523Y-78527200D02*
X125566666Y-78574819D01*
X125566666Y-78574819D02*
X125471428Y-78574819D01*
X125471428Y-78574819D02*
X125328571Y-78527200D01*
X125328571Y-78527200D02*
X125233333Y-78431961D01*
X125233333Y-78431961D02*
X125185714Y-78336723D01*
X125185714Y-78336723D02*
X125138095Y-78146247D01*
X125138095Y-78146247D02*
X125138095Y-78003390D01*
X125138095Y-78003390D02*
X125185714Y-77812914D01*
X125185714Y-77812914D02*
X125233333Y-77717676D01*
X125233333Y-77717676D02*
X125328571Y-77622438D01*
X125328571Y-77622438D02*
X125471428Y-77574819D01*
X125471428Y-77574819D02*
X125566666Y-77574819D01*
X125566666Y-77574819D02*
X125709523Y-77622438D01*
X125709523Y-77622438D02*
X125757142Y-77670057D01*
X126709523Y-78574819D02*
X126138095Y-78574819D01*
X126423809Y-78574819D02*
X126423809Y-77574819D01*
X126423809Y-77574819D02*
X126328571Y-77717676D01*
X126328571Y-77717676D02*
X126233333Y-77812914D01*
X126233333Y-77812914D02*
X126138095Y-77860533D01*
X127328571Y-77574819D02*
X127423809Y-77574819D01*
X127423809Y-77574819D02*
X127519047Y-77622438D01*
X127519047Y-77622438D02*
X127566666Y-77670057D01*
X127566666Y-77670057D02*
X127614285Y-77765295D01*
X127614285Y-77765295D02*
X127661904Y-77955771D01*
X127661904Y-77955771D02*
X127661904Y-78193866D01*
X127661904Y-78193866D02*
X127614285Y-78384342D01*
X127614285Y-78384342D02*
X127566666Y-78479580D01*
X127566666Y-78479580D02*
X127519047Y-78527200D01*
X127519047Y-78527200D02*
X127423809Y-78574819D01*
X127423809Y-78574819D02*
X127328571Y-78574819D01*
X127328571Y-78574819D02*
X127233333Y-78527200D01*
X127233333Y-78527200D02*
X127185714Y-78479580D01*
X127185714Y-78479580D02*
X127138095Y-78384342D01*
X127138095Y-78384342D02*
X127090476Y-78193866D01*
X127090476Y-78193866D02*
X127090476Y-77955771D01*
X127090476Y-77955771D02*
X127138095Y-77765295D01*
X127138095Y-77765295D02*
X127185714Y-77670057D01*
X127185714Y-77670057D02*
X127233333Y-77622438D01*
X127233333Y-77622438D02*
X127328571Y-77574819D01*
X127457142Y-73359580D02*
X127409523Y-73407200D01*
X127409523Y-73407200D02*
X127266666Y-73454819D01*
X127266666Y-73454819D02*
X127171428Y-73454819D01*
X127171428Y-73454819D02*
X127028571Y-73407200D01*
X127028571Y-73407200D02*
X126933333Y-73311961D01*
X126933333Y-73311961D02*
X126885714Y-73216723D01*
X126885714Y-73216723D02*
X126838095Y-73026247D01*
X126838095Y-73026247D02*
X126838095Y-72883390D01*
X126838095Y-72883390D02*
X126885714Y-72692914D01*
X126885714Y-72692914D02*
X126933333Y-72597676D01*
X126933333Y-72597676D02*
X127028571Y-72502438D01*
X127028571Y-72502438D02*
X127171428Y-72454819D01*
X127171428Y-72454819D02*
X127266666Y-72454819D01*
X127266666Y-72454819D02*
X127409523Y-72502438D01*
X127409523Y-72502438D02*
X127457142Y-72550057D01*
X128409523Y-73454819D02*
X127838095Y-73454819D01*
X128123809Y-73454819D02*
X128123809Y-72454819D01*
X128123809Y-72454819D02*
X128028571Y-72597676D01*
X128028571Y-72597676D02*
X127933333Y-72692914D01*
X127933333Y-72692914D02*
X127838095Y-72740533D01*
X128790476Y-72550057D02*
X128838095Y-72502438D01*
X128838095Y-72502438D02*
X128933333Y-72454819D01*
X128933333Y-72454819D02*
X129171428Y-72454819D01*
X129171428Y-72454819D02*
X129266666Y-72502438D01*
X129266666Y-72502438D02*
X129314285Y-72550057D01*
X129314285Y-72550057D02*
X129361904Y-72645295D01*
X129361904Y-72645295D02*
X129361904Y-72740533D01*
X129361904Y-72740533D02*
X129314285Y-72883390D01*
X129314285Y-72883390D02*
X128742857Y-73454819D01*
X128742857Y-73454819D02*
X129361904Y-73454819D01*
X142237142Y-70009580D02*
X142189523Y-70057200D01*
X142189523Y-70057200D02*
X142046666Y-70104819D01*
X142046666Y-70104819D02*
X141951428Y-70104819D01*
X141951428Y-70104819D02*
X141808571Y-70057200D01*
X141808571Y-70057200D02*
X141713333Y-69961961D01*
X141713333Y-69961961D02*
X141665714Y-69866723D01*
X141665714Y-69866723D02*
X141618095Y-69676247D01*
X141618095Y-69676247D02*
X141618095Y-69533390D01*
X141618095Y-69533390D02*
X141665714Y-69342914D01*
X141665714Y-69342914D02*
X141713333Y-69247676D01*
X141713333Y-69247676D02*
X141808571Y-69152438D01*
X141808571Y-69152438D02*
X141951428Y-69104819D01*
X141951428Y-69104819D02*
X142046666Y-69104819D01*
X142046666Y-69104819D02*
X142189523Y-69152438D01*
X142189523Y-69152438D02*
X142237142Y-69200057D01*
X143189523Y-70104819D02*
X142618095Y-70104819D01*
X142903809Y-70104819D02*
X142903809Y-69104819D01*
X142903809Y-69104819D02*
X142808571Y-69247676D01*
X142808571Y-69247676D02*
X142713333Y-69342914D01*
X142713333Y-69342914D02*
X142618095Y-69390533D01*
X144141904Y-70104819D02*
X143570476Y-70104819D01*
X143856190Y-70104819D02*
X143856190Y-69104819D01*
X143856190Y-69104819D02*
X143760952Y-69247676D01*
X143760952Y-69247676D02*
X143665714Y-69342914D01*
X143665714Y-69342914D02*
X143570476Y-69390533D01*
X127313333Y-70854819D02*
X126980000Y-70378628D01*
X126741905Y-70854819D02*
X126741905Y-69854819D01*
X126741905Y-69854819D02*
X127122857Y-69854819D01*
X127122857Y-69854819D02*
X127218095Y-69902438D01*
X127218095Y-69902438D02*
X127265714Y-69950057D01*
X127265714Y-69950057D02*
X127313333Y-70045295D01*
X127313333Y-70045295D02*
X127313333Y-70188152D01*
X127313333Y-70188152D02*
X127265714Y-70283390D01*
X127265714Y-70283390D02*
X127218095Y-70331009D01*
X127218095Y-70331009D02*
X127122857Y-70378628D01*
X127122857Y-70378628D02*
X126741905Y-70378628D01*
X127789524Y-70854819D02*
X127980000Y-70854819D01*
X127980000Y-70854819D02*
X128075238Y-70807200D01*
X128075238Y-70807200D02*
X128122857Y-70759580D01*
X128122857Y-70759580D02*
X128218095Y-70616723D01*
X128218095Y-70616723D02*
X128265714Y-70426247D01*
X128265714Y-70426247D02*
X128265714Y-70045295D01*
X128265714Y-70045295D02*
X128218095Y-69950057D01*
X128218095Y-69950057D02*
X128170476Y-69902438D01*
X128170476Y-69902438D02*
X128075238Y-69854819D01*
X128075238Y-69854819D02*
X127884762Y-69854819D01*
X127884762Y-69854819D02*
X127789524Y-69902438D01*
X127789524Y-69902438D02*
X127741905Y-69950057D01*
X127741905Y-69950057D02*
X127694286Y-70045295D01*
X127694286Y-70045295D02*
X127694286Y-70283390D01*
X127694286Y-70283390D02*
X127741905Y-70378628D01*
X127741905Y-70378628D02*
X127789524Y-70426247D01*
X127789524Y-70426247D02*
X127884762Y-70473866D01*
X127884762Y-70473866D02*
X128075238Y-70473866D01*
X128075238Y-70473866D02*
X128170476Y-70426247D01*
X128170476Y-70426247D02*
X128218095Y-70378628D01*
X128218095Y-70378628D02*
X128265714Y-70283390D01*
X129454819Y-93642857D02*
X128978628Y-93976190D01*
X129454819Y-94214285D02*
X128454819Y-94214285D01*
X128454819Y-94214285D02*
X128454819Y-93833333D01*
X128454819Y-93833333D02*
X128502438Y-93738095D01*
X128502438Y-93738095D02*
X128550057Y-93690476D01*
X128550057Y-93690476D02*
X128645295Y-93642857D01*
X128645295Y-93642857D02*
X128788152Y-93642857D01*
X128788152Y-93642857D02*
X128883390Y-93690476D01*
X128883390Y-93690476D02*
X128931009Y-93738095D01*
X128931009Y-93738095D02*
X128978628Y-93833333D01*
X128978628Y-93833333D02*
X128978628Y-94214285D01*
X129454819Y-92690476D02*
X129454819Y-93261904D01*
X129454819Y-92976190D02*
X128454819Y-92976190D01*
X128454819Y-92976190D02*
X128597676Y-93071428D01*
X128597676Y-93071428D02*
X128692914Y-93166666D01*
X128692914Y-93166666D02*
X128740533Y-93261904D01*
X128454819Y-92357142D02*
X128454819Y-91738095D01*
X128454819Y-91738095D02*
X128835771Y-92071428D01*
X128835771Y-92071428D02*
X128835771Y-91928571D01*
X128835771Y-91928571D02*
X128883390Y-91833333D01*
X128883390Y-91833333D02*
X128931009Y-91785714D01*
X128931009Y-91785714D02*
X129026247Y-91738095D01*
X129026247Y-91738095D02*
X129264342Y-91738095D01*
X129264342Y-91738095D02*
X129359580Y-91785714D01*
X129359580Y-91785714D02*
X129407200Y-91833333D01*
X129407200Y-91833333D02*
X129454819Y-91928571D01*
X129454819Y-91928571D02*
X129454819Y-92214285D01*
X129454819Y-92214285D02*
X129407200Y-92309523D01*
X129407200Y-92309523D02*
X129359580Y-92357142D01*
X167038095Y-75254819D02*
X167038095Y-76064342D01*
X167038095Y-76064342D02*
X167085714Y-76159580D01*
X167085714Y-76159580D02*
X167133333Y-76207200D01*
X167133333Y-76207200D02*
X167228571Y-76254819D01*
X167228571Y-76254819D02*
X167419047Y-76254819D01*
X167419047Y-76254819D02*
X167514285Y-76207200D01*
X167514285Y-76207200D02*
X167561904Y-76159580D01*
X167561904Y-76159580D02*
X167609523Y-76064342D01*
X167609523Y-76064342D02*
X167609523Y-75254819D01*
X168038095Y-75350057D02*
X168085714Y-75302438D01*
X168085714Y-75302438D02*
X168180952Y-75254819D01*
X168180952Y-75254819D02*
X168419047Y-75254819D01*
X168419047Y-75254819D02*
X168514285Y-75302438D01*
X168514285Y-75302438D02*
X168561904Y-75350057D01*
X168561904Y-75350057D02*
X168609523Y-75445295D01*
X168609523Y-75445295D02*
X168609523Y-75540533D01*
X168609523Y-75540533D02*
X168561904Y-75683390D01*
X168561904Y-75683390D02*
X167990476Y-76254819D01*
X167990476Y-76254819D02*
X168609523Y-76254819D01*
X158613333Y-73454819D02*
X158280000Y-72978628D01*
X158041905Y-73454819D02*
X158041905Y-72454819D01*
X158041905Y-72454819D02*
X158422857Y-72454819D01*
X158422857Y-72454819D02*
X158518095Y-72502438D01*
X158518095Y-72502438D02*
X158565714Y-72550057D01*
X158565714Y-72550057D02*
X158613333Y-72645295D01*
X158613333Y-72645295D02*
X158613333Y-72788152D01*
X158613333Y-72788152D02*
X158565714Y-72883390D01*
X158565714Y-72883390D02*
X158518095Y-72931009D01*
X158518095Y-72931009D02*
X158422857Y-72978628D01*
X158422857Y-72978628D02*
X158041905Y-72978628D01*
X158946667Y-72454819D02*
X159565714Y-72454819D01*
X159565714Y-72454819D02*
X159232381Y-72835771D01*
X159232381Y-72835771D02*
X159375238Y-72835771D01*
X159375238Y-72835771D02*
X159470476Y-72883390D01*
X159470476Y-72883390D02*
X159518095Y-72931009D01*
X159518095Y-72931009D02*
X159565714Y-73026247D01*
X159565714Y-73026247D02*
X159565714Y-73264342D01*
X159565714Y-73264342D02*
X159518095Y-73359580D01*
X159518095Y-73359580D02*
X159470476Y-73407200D01*
X159470476Y-73407200D02*
X159375238Y-73454819D01*
X159375238Y-73454819D02*
X159089524Y-73454819D01*
X159089524Y-73454819D02*
X158994286Y-73407200D01*
X158994286Y-73407200D02*
X158946667Y-73359580D01*
X186416666Y-96374819D02*
X186416666Y-97089104D01*
X186416666Y-97089104D02*
X186369047Y-97231961D01*
X186369047Y-97231961D02*
X186273809Y-97327200D01*
X186273809Y-97327200D02*
X186130952Y-97374819D01*
X186130952Y-97374819D02*
X186035714Y-97374819D01*
X187321428Y-96708152D02*
X187321428Y-97374819D01*
X187083333Y-96327200D02*
X186845238Y-97041485D01*
X186845238Y-97041485D02*
X187464285Y-97041485D01*
X166195833Y-87459580D02*
X166148214Y-87507200D01*
X166148214Y-87507200D02*
X166005357Y-87554819D01*
X166005357Y-87554819D02*
X165910119Y-87554819D01*
X165910119Y-87554819D02*
X165767262Y-87507200D01*
X165767262Y-87507200D02*
X165672024Y-87411961D01*
X165672024Y-87411961D02*
X165624405Y-87316723D01*
X165624405Y-87316723D02*
X165576786Y-87126247D01*
X165576786Y-87126247D02*
X165576786Y-86983390D01*
X165576786Y-86983390D02*
X165624405Y-86792914D01*
X165624405Y-86792914D02*
X165672024Y-86697676D01*
X165672024Y-86697676D02*
X165767262Y-86602438D01*
X165767262Y-86602438D02*
X165910119Y-86554819D01*
X165910119Y-86554819D02*
X166005357Y-86554819D01*
X166005357Y-86554819D02*
X166148214Y-86602438D01*
X166148214Y-86602438D02*
X166195833Y-86650057D01*
X166529167Y-86554819D02*
X167195833Y-86554819D01*
X167195833Y-86554819D02*
X166767262Y-87554819D01*
D11*
%TO.C,C9*%
X167465000Y-79438748D02*
X167465000Y-79961252D01*
X168935000Y-79438748D02*
X168935000Y-79961252D01*
%TO.C,C15*%
X166038748Y-99165000D02*
X166561252Y-99165000D01*
X166038748Y-100635000D02*
X166561252Y-100635000D01*
%TO.C,C14*%
X142961252Y-90565000D02*
X142438748Y-90565000D01*
X142961252Y-92035000D02*
X142438748Y-92035000D01*
%TO.C,C1*%
X147350248Y-80973000D02*
X147872752Y-80973000D01*
X147350248Y-82443000D02*
X147872752Y-82443000D01*
%TO.C,R7*%
X162672936Y-83390000D02*
X164127064Y-83390000D01*
X162672936Y-85210000D02*
X164127064Y-85210000D01*
%TO.C,R6*%
X154552936Y-74590000D02*
X156007064Y-74590000D01*
X154552936Y-76410000D02*
X156007064Y-76410000D01*
%TO.C,J2*%
X172090401Y-81682500D02*
X172103000Y-80082500D01*
X172100000Y-74682500D02*
X172100000Y-77045500D01*
X172100000Y-74682500D02*
X174000000Y-74682500D01*
X176800000Y-74682500D02*
X183900000Y-74682500D01*
X185900000Y-74682500D02*
X186400000Y-74682500D01*
X188200000Y-76082500D02*
X188200000Y-80407500D01*
X188200000Y-81682500D02*
X172090401Y-81682500D01*
X188200000Y-81682500D02*
X188200000Y-80407500D01*
X189700000Y-75557500D02*
X188600000Y-75557500D01*
X189700000Y-75557500D02*
X189700000Y-80782500D01*
X189700000Y-80782500D02*
X188200000Y-80782500D01*
%TO.C,C16*%
X166038748Y-96565000D02*
X166561252Y-96565000D01*
X166038748Y-98035000D02*
X166561252Y-98035000D01*
%TO.C,C6*%
X173218748Y-71265000D02*
X173741252Y-71265000D01*
X173218748Y-72735000D02*
X173741252Y-72735000D01*
%TO.C,C5*%
X164338748Y-68515000D02*
X164861252Y-68515000D01*
X164338748Y-69985000D02*
X164861252Y-69985000D01*
%TO.C,C8*%
X173218748Y-83665000D02*
X173741252Y-83665000D01*
X173218748Y-85135000D02*
X173741252Y-85135000D01*
%TO.C,C3*%
X147350248Y-78473000D02*
X147872752Y-78473000D01*
X147350248Y-79943000D02*
X147872752Y-79943000D01*
%TO.C,U4*%
X164540000Y-92390000D02*
X164590000Y-92390000D01*
X164540000Y-94210000D02*
X164540000Y-92390000D01*
X164590000Y-94210000D02*
X164540000Y-94210000D01*
X165710000Y-92390000D02*
X166490000Y-92390000D01*
X167610000Y-92390000D02*
X167660000Y-92390000D01*
X167660000Y-92390000D02*
X167660000Y-94210000D01*
X167660000Y-94210000D02*
X167610000Y-94210000D01*
X164590000Y-94750000D02*
X164260000Y-94990000D01*
X164260000Y-94510000D01*
X164590000Y-94750000D01*
G36*
X164590000Y-94750000D02*
G01*
X164260000Y-94990000D01*
X164260000Y-94510000D01*
X164590000Y-94750000D01*
G37*
%TO.C,R4*%
X163972936Y-71090000D02*
X165427064Y-71090000D01*
X163972936Y-72910000D02*
X165427064Y-72910000D01*
%TO.C,R11*%
X133790000Y-93727064D02*
X133790000Y-92272936D01*
X135610000Y-93727064D02*
X135610000Y-92272936D01*
%TO.C,JP6*%
X158400000Y-98300000D02*
X158400000Y-97700000D01*
X159100000Y-97000000D02*
X160500000Y-97000000D01*
X160500000Y-99000000D02*
X159100000Y-99000000D01*
X161200000Y-97700000D02*
X161200000Y-98300000D01*
X158400000Y-97700000D02*
G75*
G02*
X159100000Y-97000000I699999J1D01*
G01*
X159100000Y-99000000D02*
G75*
G02*
X158400000Y-98300000I-1J699999D01*
G01*
X160500000Y-97000000D02*
G75*
G02*
X161200000Y-97700000I0J-700000D01*
G01*
X161200000Y-98300000D02*
G75*
G02*
X160500000Y-99000000I-700000J0D01*
G01*
%TO.C,J1*%
X118310000Y-79800000D02*
X118810000Y-80050000D01*
X118810000Y-79550000D02*
X118310000Y-79800000D01*
X118810000Y-80050000D02*
X118810000Y-79550000D01*
%TO.C,C4*%
X147312748Y-75973000D02*
X147835252Y-75973000D01*
X147312748Y-77443000D02*
X147835252Y-77443000D01*
%TO.C,JP7*%
X158000000Y-91800000D02*
X158000000Y-92400000D01*
X158300000Y-92100000D02*
X158000000Y-91800000D01*
X158300000Y-92100000D02*
X158000000Y-92400000D01*
X158500000Y-94700000D02*
X158500000Y-91900000D01*
X159200000Y-91250000D02*
X159800000Y-91250000D01*
X159800000Y-95350000D02*
X159200000Y-95350000D01*
X160500000Y-91900000D02*
X160500000Y-94700000D01*
X158500000Y-91950000D02*
G75*
G02*
X159200000Y-91250000I699999J1D01*
G01*
X159200000Y-95350000D02*
G75*
G02*
X158500000Y-94650000I0J700000D01*
G01*
X159800000Y-91250000D02*
G75*
G02*
X160500000Y-91950000I1J-699999D01*
G01*
X160500000Y-94650000D02*
G75*
G02*
X159800000Y-95350000I-700000J0D01*
G01*
%TO.C,U1*%
X137220000Y-71565000D02*
X141340000Y-71565000D01*
X137220000Y-71620000D02*
X137220000Y-71565000D01*
X137220000Y-81685000D02*
X137220000Y-81630000D01*
X141340000Y-71565000D02*
X141340000Y-71620000D01*
X141340000Y-81630000D02*
X141340000Y-81685000D01*
X141340000Y-81685000D02*
X137220000Y-81685000D01*
X136680000Y-71615000D02*
X136440000Y-71285000D01*
X136920000Y-71285000D01*
X136680000Y-71615000D01*
G36*
X136680000Y-71615000D02*
G01*
X136440000Y-71285000D01*
X136920000Y-71285000D01*
X136680000Y-71615000D01*
G37*
%TO.C,C13*%
X154265000Y-88661252D02*
X154265000Y-88138748D01*
X155735000Y-88661252D02*
X155735000Y-88138748D01*
%TO.C,R12*%
X138090000Y-93727064D02*
X138090000Y-92272936D01*
X139910000Y-93727064D02*
X139910000Y-92272936D01*
%TO.C,R1*%
X146952936Y-70290000D02*
X148407064Y-70290000D01*
X146952936Y-72110000D02*
X148407064Y-72110000D01*
%TO.C,R2*%
X154552936Y-82190000D02*
X156007064Y-82190000D01*
X154552936Y-84010000D02*
X156007064Y-84010000D01*
%TO.C,J3*%
X157780000Y-104680000D02*
X157780000Y-103300000D01*
X159160000Y-104680000D02*
X157780000Y-104680000D01*
X160430000Y-101920000D02*
X168160000Y-101920000D01*
X160430000Y-104680000D02*
X160430000Y-101920000D01*
X160430000Y-104680000D02*
X168160000Y-104680000D01*
X168160000Y-104680000D02*
X168160000Y-101920000D01*
%TO.C,C2*%
X147350248Y-73473000D02*
X147872752Y-73473000D01*
X147350248Y-74943000D02*
X147872752Y-74943000D01*
D12*
%TO.C,U3*%
X120240000Y-87345000D02*
X120240000Y-103855000D01*
X122780000Y-84805000D02*
X148179999Y-84805000D01*
X122780000Y-106395000D02*
X148180000Y-106395000D01*
D11*
X126530000Y-86015000D02*
X127860000Y-86015000D01*
X126530000Y-87345000D02*
X126530000Y-86015000D01*
X129130000Y-86015000D02*
X144430000Y-86015000D01*
X129130000Y-88675000D02*
X129130000Y-86015000D01*
X129130000Y-88675000D02*
X144430000Y-88675000D01*
X144430000Y-88675000D02*
X144430000Y-86015000D01*
D12*
X150720000Y-87345001D02*
X150720000Y-103855000D01*
X120240000Y-87345000D02*
G75*
G02*
X122780000Y-84805000I2540001J-1D01*
G01*
X122780000Y-106395000D02*
G75*
G02*
X120240000Y-103855000I1J2540001D01*
G01*
X148180000Y-84805000D02*
G75*
G02*
X150720000Y-87345000I-1J-2540001D01*
G01*
X150720000Y-103855000D02*
G75*
G02*
X148180000Y-106395000I-2540001J1D01*
G01*
D11*
%TO.C,R10*%
X131072936Y-75290000D02*
X132527064Y-75290000D01*
X131072936Y-77110000D02*
X132527064Y-77110000D01*
%TO.C,R8*%
X130352936Y-67090000D02*
X131807064Y-67090000D01*
X130352936Y-68910000D02*
X131807064Y-68910000D01*
%TO.C,R5*%
X154552936Y-79490000D02*
X156007064Y-79490000D01*
X154552936Y-81310000D02*
X156007064Y-81310000D01*
%TO.C,C10*%
X126238748Y-79065000D02*
X126761252Y-79065000D01*
X126238748Y-80535000D02*
X126761252Y-80535000D01*
%TO.C,C12*%
X131338748Y-72265000D02*
X131861252Y-72265000D01*
X131338748Y-73735000D02*
X131861252Y-73735000D01*
%TO.C,C11*%
X139018748Y-68765000D02*
X139541252Y-68765000D01*
X139018748Y-70235000D02*
X139541252Y-70235000D01*
%TO.C,R9*%
X131807064Y-69490000D02*
X130352936Y-69490000D01*
X131807064Y-71310000D02*
X130352936Y-71310000D01*
%TO.C,R13*%
X130490000Y-92272936D02*
X130490000Y-93727064D01*
X132310000Y-92272936D02*
X132310000Y-93727064D01*
%TO.C,U2*%
X160840000Y-76190000D02*
X160935000Y-76190000D01*
X160840000Y-80310000D02*
X160840000Y-76190000D01*
X160935000Y-80310000D02*
X160840000Y-80310000D01*
X165865000Y-76190000D02*
X165960000Y-76190000D01*
X165960000Y-76190000D02*
X165960000Y-80310000D01*
X165960000Y-80310000D02*
X165865000Y-80310000D01*
X166200000Y-75890000D02*
X165870000Y-75650000D01*
X166200000Y-75410000D01*
X166200000Y-75890000D01*
G36*
X166200000Y-75890000D02*
G01*
X165870000Y-75650000D01*
X166200000Y-75410000D01*
X166200000Y-75890000D01*
G37*
%TO.C,R3*%
X154552936Y-72090000D02*
X156007064Y-72090000D01*
X154552936Y-73910000D02*
X156007064Y-73910000D01*
%TO.C,J4*%
X185370000Y-93270000D02*
X185370000Y-85540000D01*
X188130000Y-85540000D02*
X185370000Y-85540000D01*
X188130000Y-93270000D02*
X185370000Y-93270000D01*
X188130000Y-93270000D02*
X188130000Y-85540000D01*
X188130000Y-94540000D02*
X188130000Y-95920000D01*
X188130000Y-95920000D02*
X186750000Y-95920000D01*
%TO.C,C7*%
X163138748Y-86365000D02*
X163661252Y-86365000D01*
X163138748Y-87835000D02*
X163661252Y-87835000D01*
%TD*%
M02*
